<svg width="84" height="68" viewBox="0 0 84 68" fill="none" xmlns="http://www.w3.org/2000/svg">
<g id="Ellipse 18">
<mask id="path-1-outside-1_51_964" maskUnits="userSpaceOnUse" x="0.0145264" y="-0.245453" width="84" height="68" fill="black">
<rect fill="white" x="0.0145264" y="-0.245453" width="84" height="68"/>
<path d="M82.0871 66.4189C82.0871 42.8687 74.496 20.0067 60.5409 1.5289L1.67336 50.1964C5.16213 54.8158 7.05991 60.5313 7.05991 66.4189L82.0871 66.4189Z"/>
</mask>
<path d="M82.0871 66.4189C82.0871 42.8687 74.496 20.0067 60.5409 1.5289L1.67336 50.1964C5.16213 54.8158 7.05991 60.5313 7.05991 66.4189L82.0871 66.4189Z" fill="#D80000"/>
<path d="M82.0871 66.4189C82.0871 42.8687 74.496 20.0067 60.5409 1.5289L1.67336 50.1964C5.16213 54.8158 7.05991 60.5313 7.05991 66.4189L82.0871 66.4189Z" stroke="white" stroke-width="2" mask="url(#path-1-outside-1_51_964)"/>
</g>
</svg>
