<svg width="96" height="104" viewBox="0 0 96 104" fill="none" xmlns="http://www.w3.org/2000/svg">
<g id="Ellipse 20">
<mask id="path-1-outside-1_51_970" maskUnits="userSpaceOnUse" x="-21.5117" y="-0.292937" width="123.151" height="126.283" fill="black">
<rect fill="white" x="-21.5117" y="-0.292937" width="123.151" height="126.283"/>
<path d="M72.7149 1.55845C52.0932 8.09938 34.0414 21.4323 21.2462 39.5728C8.45104 57.7133 1.59644 79.6917 1.70262 102.237L76.7289 101.85C76.7024 96.2137 78.416 90.7192 81.6148 86.184C84.8136 81.6489 89.3266 78.3157 94.482 76.6804L72.7149 1.55845Z"/>
</mask>
<path d="M72.7149 1.55845C52.0932 8.09938 34.0414 21.4323 21.2462 39.5728C8.45104 57.7133 1.59644 79.6917 1.70262 102.237L76.7289 101.85C76.7024 96.2137 78.416 90.7192 81.6148 86.184C84.8136 81.6489 89.3266 78.3157 94.482 76.6804L72.7149 1.55845Z" fill="#0FDF00"/>
<path d="M72.7149 1.55845C52.0932 8.09938 34.0414 21.4323 21.2462 39.5728C8.45104 57.7133 1.59644 79.6917 1.70262 102.237L76.7289 101.85C76.7024 96.2137 78.416 90.7192 81.6148 86.184C84.8136 81.6489 89.3266 78.3157 94.482 76.6804L72.7149 1.55845Z" stroke="white" stroke-width="2" mask="url(#path-1-outside-1_51_970)"/>
</g>
</svg>
