<svg width="54" height="55" viewBox="0 0 54 55" fill="none" xmlns="http://www.w3.org/2000/svg">
<g id="file-text">
<path id="Vector" d="M21.3254 7.25H16.3125C13.5166 7.25 11.25 9.51656 11.25 12.3125V42.6875C11.25 45.4834 13.5166 47.75 16.3125 47.75H36.5625C39.3585 47.75 41.625 45.4834 41.625 42.6875V27.5M21.3254 7.25C24.1213 7.25 26.4375 9.51656 26.4375 12.3125V17.375C26.4375 20.1709 28.7041 22.4375 31.5 22.4375H36.5625C39.3585 22.4375 41.625 24.7041 41.625 27.5M21.3254 7.25C29.6277 7.25 41.625 19.3093 41.625 27.5" stroke="#1C782B" stroke-width="3.375" stroke-linecap="round" stroke-linejoin="round"/>
<path id="Vector_2" d="M20.25 37.625H33.75" stroke="#1C782B" stroke-width="3.375" stroke-linecap="round" stroke-linejoin="round"/>
<path id="Vector_3" d="M20.25 30.875H29.25" stroke="#1C782B" stroke-width="3.375" stroke-linecap="round" stroke-linejoin="round"/>
</g>
</svg>
