<svg width="24" height="25" viewBox="0 0 24 25" fill="none" xmlns="http://www.w3.org/2000/svg">
<g id="SortRounded">
<path id="Vector" d="M4 18.5H8C8.55 18.5 9 18.05 9 17.5C9 16.95 8.55 16.5 8 16.5H4C3.45 16.5 3 16.95 3 17.5C3 18.05 3.45 18.5 4 18.5ZM3 7.5C3 8.05 3.45 8.5 4 8.5H20C20.55 8.5 21 8.05 21 7.5C21 6.95 20.55 6.5 20 6.5H4C3.45 6.5 3 6.95 3 7.5ZM4 13.5H14C14.55 13.5 15 13.05 15 12.5C15 11.95 14.55 11.5 14 11.5H4C3.45 11.5 3 11.95 3 12.5C3 13.05 3.45 13.5 4 13.5Z" fill="black" fill-opacity="0.54"/>
</g>
</svg>
